<svg id="Group_210" data-name="Group 210" xmlns="http://www.w3.org/2000/svg" width="24.483" height="21.983" viewBox="0 0 24.483 21.983">
  <path id="Path_55" data-name="Path 55" d="M324.009,65.02c-3.467-5.131-10.973-6.806-16.719-3.743a11.027,11.027,0,0,0-5.683,7.05A10,10,0,0,0,302.826,76l-1.474,4.432a.992.992,0,0,0,.2.965.982.982,0,0,0,.731.329,1.175,1.175,0,0,0,.2-.021l5.555-1.177a13.558,13.558,0,0,0,11.768-.371,11.02,11.02,0,0,0,5.683-7.061A10,10,0,0,0,324.009,65.02ZM304.841,76.194a1.011,1.011,0,0,0-.117-.869,8.079,8.079,0,0,1-1.209-6.51,9.061,9.061,0,0,1,4.7-5.789c4.888-2.608,11.238-1.219,14.154,3.106a8.065,8.065,0,0,1,1.209,6.51,9.061,9.061,0,0,1-4.7,5.789,11.532,11.532,0,0,1-10.294.191,1.037,1.037,0,0,0-.435-.1,1.175,1.175,0,0,0-.2.021l-4.188.891Z" transform="translate(-301.305 -59.745)" fill="#808083"/>
  <path id="Path_56" data-name="Path 56" d="M312.9,71.183a.991.991,0,1,0-.986-.986A.993.993,0,0,0,312.9,71.183Z" transform="translate(-300.667 -59.176)" fill="#808083"/>
  <path id="Path_57" data-name="Path 57" d="M309.162,70.186a.986.986,0,1,0-.986,1A.991.991,0,0,0,309.162,70.186Z" transform="translate(-300.951 -59.176)" fill="#808083"/>
  <path id="Path_58" data-name="Path 58" d="M317.606,71.183a.991.991,0,1,0-.986-.986A.993.993,0,0,0,317.606,71.183Z" transform="translate(-300.383 -59.176)" fill="#808083"/>
</svg>
