<svg xmlns="http://www.w3.org/2000/svg" xmlns:xlink="http://www.w3.org/1999/xlink" width="24.451" height="25.756" viewBox="0 0 24.451 25.756">
  <defs>
    <linearGradient id="linear-gradient" x1="0.5" x2="0.5" y2="1" gradientUnits="objectBoundingBox">
      <stop offset="0" stop-color="#ffe53b"/>
      <stop offset="1" stop-color="#ff2525"/>
    </linearGradient>
  </defs>
  <g id="Group_747" data-name="Group 747" transform="translate(-224.406 -235.569)">
    <path id="Path_3" data-name="Path 3" d="M3.483,0A3.483,3.483,0,1,0,6.967,3.483,3.487,3.487,0,0,0,3.483,0Zm0,5.418A1.935,1.935,0,1,1,5.418,3.483,1.937,1.937,0,0,1,3.483,5.418Z" transform="translate(224.406 235.569)" fill="url(#linear-gradient)"/>
    <path id="Path_4" data-name="Path 4" d="M3.483,184a3.483,3.483,0,1,0,3.483,3.483A3.487,3.487,0,0,0,3.483,184Zm0,5.418a1.935,1.935,0,1,1,1.935-1.935A1.937,1.937,0,0,1,3.483,189.418Z" transform="translate(224.406 60.964)" fill="url(#linear-gradient)"/>
    <path id="Path_5" data-name="Path 5" d="M3.483,368a3.483,3.483,0,1,0,3.483,3.483A3.487,3.487,0,0,0,3.483,368Zm0,5.419a1.935,1.935,0,1,1,1.935-1.935A1.937,1.937,0,0,1,3.483,373.418Z" transform="translate(224.406 -113.642)" fill="url(#linear-gradient)"/>
    <path id="Path_6" data-name="Path 6" d="M179.483,6.967h9.289a3.483,3.483,0,0,0,0-6.967h-9.289a3.483,3.483,0,1,0,0,6.967Zm0-5.418h9.289a1.935,1.935,0,0,1,0,3.87h-9.289a1.935,1.935,0,1,1,0-3.87Z" transform="translate(56.601 235.569)" fill="url(#linear-gradient)"/>
    <path id="Path_7" data-name="Path 7" d="M188.772,184h-9.289a3.483,3.483,0,1,0,0,6.967h9.289a3.483,3.483,0,0,0,0-6.967Zm0,5.418h-9.289a1.935,1.935,0,1,1,0-3.87h9.289a1.935,1.935,0,1,1,0,3.87Z" transform="translate(56.601 60.964)" fill="url(#linear-gradient)"/>
    <path id="Path_8" data-name="Path 8" d="M188.772,368h-9.289a3.483,3.483,0,0,0,0,6.967h9.289a3.483,3.483,0,0,0,0-6.967Zm0,5.419h-9.289a1.935,1.935,0,1,1,0-3.87h9.289a1.935,1.935,0,0,1,0,3.87Z" transform="translate(56.601 -113.642)" fill="url(#linear-gradient)"/>
  </g>
</svg>
