<svg xmlns="http://www.w3.org/2000/svg" width="33" height="27.554" viewBox="0 0 33 27.554">
  <g id="group" transform="translate(0 -38.071)">
    <g id="Group_746" data-name="Group 746" transform="translate(0 38.071)">
      <g id="Group_740" data-name="Group 740" transform="translate(6.273 1.466)">
        <g id="XMLID_29_">
          <g id="Group_739" data-name="Group 739">
            <path id="Path_613" data-name="Path 613" d="M108.174,247.977v.009a15.242,15.242,0,0,1-20.469,0v-.009a10.234,10.234,0,0,1,5.841-9.245,5.843,5.843,0,0,0,8.789,0A10.233,10.233,0,0,1,108.174,247.977Z" transform="translate(-87.705 -225.846)" fill="#1ea6c6"/>
            <path id="Path_614" data-name="Path 614" d="M157.31,58.571a5.661,5.661,0,0,1,5.661,5.661c0,3.127-2.535,7.4-5.661,7.4s-5.661-4.276-5.661-7.4A5.661,5.661,0,0,1,157.31,58.571Z" transform="translate(-147.075 -58.571)" fill="#fcd09f"/>
          </g>
        </g>
      </g>
      <g id="Group_745" data-name="Group 745">
        <g id="Group_742" data-name="Group 742">
          <g id="XMLID_27_">
            <g id="Group_741" data-name="Group 741">
              <path id="Path_615" data-name="Path 615" d="M11.737,196.366q.26.371.539.7l-.565.269a11.173,11.173,0,0,0-6.3,8.759A13.246,13.246,0,0,1,0,203.119v-.007a8.919,8.919,0,0,1,5.09-8.057,5.426,5.426,0,0,0,3.829,1.736,4.962,4.962,0,0,0,2.6-.758C11.586,196.146,11.661,196.257,11.737,196.366Z" transform="translate(0 -183.826)" fill="#ef806f"/>
              <path id="Path_616" data-name="Path 616" d="M61.643,45.2a9.232,9.232,0,0,0,.85,3.684,3.43,3.43,0,0,1-1.841.573c-2.724,0-4.933-3.726-4.933-6.451a4.933,4.933,0,0,1,8.7-3.183A6.6,6.6,0,0,0,61.643,45.2Z" transform="translate(-51.734 -38.071)" fill="#efc59c"/>
            </g>
          </g>
        </g>
        <g id="Group_744" data-name="Group 744" transform="translate(20.313)">
          <g id="XMLID_22_">
            <g id="Group_743" data-name="Group 743">
              <path id="Path_617" data-name="Path 617" d="M290.28,196.366q-.26.371-.539.7l.565.269a11.173,11.173,0,0,1,6.3,8.759,13.245,13.245,0,0,0,5.414-2.972v-.007a8.919,8.919,0,0,0-5.09-8.057,5.425,5.425,0,0,1-3.829,1.736,4.962,4.962,0,0,1-2.6-.758C290.431,196.146,290.356,196.257,290.28,196.366Z" transform="translate(-289.33 -183.826)" fill="#ef806f"/>
              <path id="Path_618" data-name="Path 618" d="M286.776,45.2a9.232,9.232,0,0,1-.85,3.684,3.43,3.43,0,0,0,1.841.573c2.724,0,4.933-3.726,4.933-6.451A4.933,4.933,0,0,0,284,39.82,6.6,6.6,0,0,1,286.776,45.2Z" transform="translate(-283.999 -38.071)" fill="#efc59c"/>
            </g>
          </g>
        </g>
      </g>
    </g>
  </g>
</svg>
