<svg xmlns="http://www.w3.org/2000/svg" width="19.887" height="31.4" viewBox="0 0 19.887 31.4">
  <g id="Group_732" data-name="Group 732" transform="translate(-5320 -3680)">
    <path id="Path_255" data-name="Path 255" d="M111.136,0H96.483a2.62,2.62,0,0,0-2.617,2.617V28.784A2.62,2.62,0,0,0,96.483,31.4h14.653a2.62,2.62,0,0,0,2.617-2.617V2.617A2.62,2.62,0,0,0,111.136,0Z" transform="translate(5226.134 3680)" fill="#394882"/>
    <rect id="Rectangle_172" data-name="Rectangle 172" width="17.772" height="21.98" transform="translate(5321.068 3683.663)" fill="#69a7ff"/>
    <path id="Path_254" data-name="Path 254" d="M231.97,438.34a1.57,1.57,0,1,1,1.57-1.57A1.57,1.57,0,0,1,231.97,438.34Z" transform="translate(5098.145 3271.49)" fill="#cbc9c2"/>
  </g>
</svg>
