<svg xmlns="http://www.w3.org/2000/svg" width="25.71" height="23.625" viewBox="0 0 25.71 23.625">
  <g id="Group_217" data-name="Group 217" transform="translate(0.573 0.54)">
    <g id="Group_216" data-name="Group 216">
      <path id="Path_62" data-name="Path 62" d="M52.465,77.777V72.031a.807.807,0,0,1,.818-.818h2.194a.807.807,0,0,1,.818.818v5.746ZM66.4,66.659,54.9,57.073a.838.838,0,0,0-1.045,0l-11.5,9.586a.827.827,0,0,0-.113,1.149.849.849,0,0,0,1.149.113l2.22-1.837V76.158a3.472,3.472,0,0,0,3.613,3.317H59.491A3.467,3.467,0,0,0,63.1,76.158V66.084l2.22,1.837a.764.764,0,0,0,.522.192.823.823,0,0,0,.627-.3A.765.765,0,0,0,66.4,66.659Z" transform="translate(-42.062 -56.89)" fill="none" stroke="#808083" stroke-width="1"/>
    </g>
  </g>
</svg>
