<svg xmlns="http://www.w3.org/2000/svg" width="13.498" height="12.4" viewBox="0 0 13.498 12.4">
  <g id="Group_157" data-name="Group 157" transform="translate(0.2 0.2)">
    <path id="Path_17" data-name="Path 17" d="M174.345,5.849V.337a.362.362,0,0,0-.723,0V5.849a1.75,1.75,0,0,0-1.472,1.679,1.75,1.75,0,0,0,1.472,1.679V11.66a.362.362,0,0,0,.723,0V9.207a1.75,1.75,0,0,0,1.472-1.679A1.749,1.749,0,0,0,174.345,5.849Zm-.361,2.716a1.077,1.077,0,0,1-1.111-1.037,1.114,1.114,0,0,1,2.222,0A1.077,1.077,0,0,1,173.984,8.565Z" transform="translate(-167.421)" fill="#fff" stroke="#fff" stroke-width="0.4"/>
    <path id="Path_18" data-name="Path 18" d="M9.045,3.021V.337a.362.362,0,0,0-.723,0V3.021A1.75,1.75,0,0,0,6.85,4.7,1.75,1.75,0,0,0,8.322,6.378V11.66a.362.362,0,0,0,.723,0V6.376A1.75,1.75,0,0,0,10.518,4.7,1.747,1.747,0,0,0,9.045,3.021ZM8.684,5.736A1.077,1.077,0,0,1,7.573,4.7a1.114,1.114,0,0,1,2.222,0A1.078,1.078,0,0,1,8.684,5.736Z" transform="translate(-6.85)" fill="#fff" stroke="#fff" stroke-width="0.4"/>
    <path id="Path_19" data-name="Path 19" d="M338.645,3.021V.337a.362.362,0,0,0-.723,0V3.021A1.75,1.75,0,0,0,336.45,4.7a1.75,1.75,0,0,0,1.472,1.679v5.284a.362.362,0,0,0,.723,0V6.376A1.75,1.75,0,0,0,340.118,4.7,1.745,1.745,0,0,0,338.645,3.021Zm-.361,2.716A1.077,1.077,0,0,1,337.173,4.7a1.114,1.114,0,0,1,2.222,0A1.077,1.077,0,0,1,338.284,5.736Z" transform="translate(-327.02)" fill="#fff" stroke="#fff" stroke-width="0.4"/>
  </g>
</svg>
