<svg xmlns="http://www.w3.org/2000/svg" width="23" height="21" viewBox="0 0 23 21">
  <g id="setup" transform="translate(-6.85)">
    <g id="Group_157" data-name="Group 157" transform="translate(6.85)">
      <path id="Path_17" data-name="Path 17" d="M175.874,10.235V.59a.613.613,0,0,0-1.226,0v9.645a2.977,2.977,0,0,0,0,5.876v4.294a.613.613,0,0,0,1.226,0V16.112a2.977,2.977,0,0,0,0-5.876Zm-.613,4.753a1.816,1.816,0,1,1,1.885-1.814A1.852,1.852,0,0,1,175.261,14.988Z" transform="translate(-163.735)" fill="#6d6e70"/>
      <path id="Path_18" data-name="Path 18" d="M10.574,5.286V.59a.613.613,0,0,0-1.226,0v4.7a3.033,3.033,0,0,0-2.5,2.938,3.033,3.033,0,0,0,2.5,2.938v9.243a.613.613,0,0,0,1.226,0V11.158a3.033,3.033,0,0,0,2.5-2.938A3.028,3.028,0,0,0,10.574,5.286Zm-.613,4.753a1.816,1.816,0,1,1,1.885-1.814A1.852,1.852,0,0,1,9.961,10.039Z" transform="translate(-6.85)" fill="#6d6e70"/>
      <path id="Path_19" data-name="Path 19" d="M340.174,5.286V.59a.613.613,0,0,0-1.226,0v4.7a3.033,3.033,0,0,0-2.5,2.938,3.033,3.033,0,0,0,2.5,2.938V20.41a.613.613,0,0,0,1.226,0V11.158a3.033,3.033,0,0,0,2.5-2.938A3.024,3.024,0,0,0,340.174,5.286Zm-.613,4.753a1.816,1.816,0,1,1,1.885-1.814A1.852,1.852,0,0,1,339.561,10.039Z" transform="translate(-319.671)" fill="#6d6e70"/>
    </g>
  </g>
</svg>
