<svg xmlns="http://www.w3.org/2000/svg" width="28.583" height="25" viewBox="0 0 28.583 25">
  <g id="suitcase" transform="translate(0 -32.088)">
    <g id="Group_683" data-name="Group 683" transform="translate(0 32.088)">
      <path id="Path_187" data-name="Path 187" d="M177.928,33.356a5.624,5.624,0,0,0-1.241-.663,9.138,9.138,0,0,0-6.543,0,5.622,5.622,0,0,0-1.241.663.939.939,0,0,0-.37.747v1.474l.939.5.939-.5v-.942a7.083,7.083,0,0,1,6.008,0v.942l.939.5.939-.5V34.1A.939.939,0,0,0,177.928,33.356Z" transform="translate(-159.124 -32.088)" fill="#e8834d"/>
      <g id="Group_682" data-name="Group 682" transform="translate(9.408 3.489)">
        <path id="Path_188" data-name="Path 188" d="M168.533,94.589v1.037l.939.5.939-.5V94.589Z" transform="translate(-168.533 -94.589)" fill="#d66e41"/>
        <path id="Path_189" data-name="Path 189" d="M311.684,94.589H309.8v1.037l.939.5.939-.5Z" transform="translate(-301.918 -94.589)" fill="#d66e41"/>
      </g>
      <path id="Path_190" data-name="Path 190" d="M13.247,298.286v8.346a1.794,1.794,0,0,0,1.794,1.794H38.557a1.794,1.794,0,0,0,1.794-1.794v-8.346Z" transform="translate(-12.507 -283.425)" fill="#365e7d"/>
      <path id="Path_191" data-name="Path 191" d="M13.247,279.705v1.037c1.49,1.183,5.429,3.48,13.552,3.48s12.062-2.3,13.552-3.48v-1.037h-27.1Z" transform="translate(-12.507 -265.882)" fill="#2b4d66"/>
      <path id="Path_192" data-name="Path 192" d="M.662,121.869c1.428,1.163,5.362,3.543,13.63,3.543s12.2-2.38,13.63-3.543a3,3,0,0,0,.662-1.894v-5.012a1.794,1.794,0,0,0-1.794-1.794H1.794A1.794,1.794,0,0,0,0,114.963v5.012a3,3,0,0,0,.662,1.894Z" transform="translate(0 -108.643)" fill="#407093"/>
      <path id="Path_193" data-name="Path 193" d="M27.921,236.47c-1.428,1.163-5.362,3.543-13.63,3.543s-12.2-2.38-13.63-3.543A1.794,1.794,0,0,1,0,235.078v1.037a1.794,1.794,0,0,0,.662,1.392c1.428,1.163,5.362,3.543,13.63,3.543s12.2-2.38,13.63-3.543a1.794,1.794,0,0,0,.662-1.392v-1.037A1.794,1.794,0,0,1,27.921,236.47Z" transform="translate(0 -223.746)" fill="#365e7d"/>
      <path id="Path_194" data-name="Path 194" d="M227.577,308.713c.928,0,1.68-.689,1.68-2.183v-1.019a.6.6,0,0,0-.6-.6h-2.165a.6.6,0,0,0-.6.6v1.019C225.9,308.023,226.649,308.713,227.577,308.713Z" transform="translate(-213.286 -289.682)" fill="#ffe27a"/>
      <path id="Path_195" data-name="Path 195" d="M227.577,335.554a1.68,1.68,0,0,1-1.68-1.68v1.037a1.68,1.68,0,1,0,3.361,0v-1.037A1.68,1.68,0,0,1,227.577,335.554Z" transform="translate(-213.286 -317.027)" fill="#f9cf58"/>
    </g>
  </g>
</svg>
