<svg id="Group_221" data-name="Group 221" xmlns="http://www.w3.org/2000/svg" width="24.048" height="18.44" viewBox="0 0 24.048 18.44">
  <g id="Group_218" data-name="Group 218">
    <path id="Path_63" data-name="Path 63" d="M407.776,61.352H385.331a.8.8,0,1,1,0-1.6h22.445a.8.8,0,1,1,0,1.6Z" transform="translate(-384.53 -59.75)" fill="#808083"/>
  </g>
  <g id="Group_219" data-name="Group 219" transform="translate(0 8.419)">
    <path id="Path_64" data-name="Path 64" d="M407.776,71.022H385.331a.8.8,0,1,1,0-1.6h22.445a.8.8,0,1,1,0,1.6Z" transform="translate(-384.53 -69.42)" fill="#808083"/>
  </g>
  <g id="Group_220" data-name="Group 220" transform="translate(0 16.838)">
    <path id="Path_65" data-name="Path 65" d="M407.776,80.692H385.331a.8.8,0,1,1,0-1.6h22.445a.8.8,0,1,1,0,1.6Z" transform="translate(-384.53 -79.09)" fill="#808083"/>
  </g>
</svg>
