<svg id="car" xmlns="http://www.w3.org/2000/svg" width="32.365" height="25" viewBox="0 0 32.365 25">
  <path id="Path_196" data-name="Path 196" d="M38.234,70.384a4.74,4.74,0,0,0-.991-2.645,8.149,8.149,0,0,1-1.581-3.09,37.779,37.779,0,0,0-2.641-5.686,4.56,4.56,0,0,0-3.342-2.2,94.98,94.98,0,0,0-14.354,0,4.566,4.566,0,0,0-3.341,2.2,37.885,37.885,0,0,0-2.641,5.686,8.149,8.149,0,0,1-1.581,3.09,4.739,4.739,0,0,0-.99,2.645c-.1,2.085.5,2.543,1.044,7.26a.734.734,0,0,0,.73.65H36.461a.734.734,0,0,0,.73-.65c.152-1.323.6-4.006.6-4.006A9.825,9.825,0,0,0,38.234,70.384Z" transform="translate(-6.321 -56.489)" fill="#e95353"/>
  <path id="Path_197" data-name="Path 197" d="M80.41,71.815a40.69,40.69,0,0,0-2.486-5.268,4.113,4.113,0,0,0-2.972-2,91.131,91.131,0,0,0-14.226,0,4.114,4.114,0,0,0-2.972,2,41.4,41.4,0,0,0-2.5,5.268A160.37,160.37,0,0,0,80.41,71.815Z" transform="translate(-51.657 -63.765)" fill="#168de2"/>
  <path id="Path_198" data-name="Path 198" d="M372.763,215.155a4.618,4.618,0,0,0-.866.38,10.639,10.639,0,0,1-1.4.673c-.805.305-.942.762-.942.762-.024.031-.048.063-.07.1a1.287,1.287,0,0,0,1.274,1.961,15.547,15.547,0,0,0,3.513-.939,1.259,1.259,0,0,0,.765-.858c.009-.037.017-.075.024-.111A1.768,1.768,0,0,0,372.763,215.155Z" transform="translate(-345.197 -204.733)" fill="#fff"/>
  <path id="Path_199" data-name="Path 199" d="M419.3,327.857H417.56a.3.3,0,0,0-.208.5l1.743,1.743a.3.3,0,0,0,.5-.208v-1.743A.294.294,0,0,0,419.3,327.857Z" transform="translate(-390.064 -310.166)" fill="#ffe21f"/>
  <path id="Path_200" data-name="Path 200" d="M414.981,330.868a.735.735,0,0,1-.731.652H410.9v1.946a1.248,1.248,0,0,0,1.248,1.248h2.106a1.248,1.248,0,0,0,1.248-1.248v-6.092C415.361,328.219,415.091,329.9,414.981,330.868Z" transform="translate(-384.11 -309.716)" fill="#454545"/>
  <path id="Path_201" data-name="Path 201" d="M449.434,148.177a1,1,0,0,0-.991-.761H447.6a.976.976,0,0,0-.976.976v.6h-.446l.256.608h.981a3.535,3.535,0,0,0,1.472-.321A.975.975,0,0,0,449.434,148.177Z" transform="translate(-417.092 -141.488)" fill="#ed6262"/>
  <circle id="Ellipse_53" data-name="Ellipse 53" cx="1.227" cy="1.227" r="1.227" transform="translate(26.891 10.766)" fill="#ffbd49"/>
  <circle id="Ellipse_54" data-name="Ellipse 54" cx="0.901" cy="0.901" r="0.901" transform="translate(24.748 12.06)" fill="#ffdb6f"/>
  <path id="Path_202" data-name="Path 202" d="M153.1,255.324l-1.409,2.454H140.248l-1.409-2.454Z" transform="translate(-129.788 -242.362)" fill="#6f6f6f"/>
  <path id="Path_203" data-name="Path 203" d="M43.552,217.059c-.021-.032-.045-.064-.07-.1,0,0-.137-.456-.942-.762a10.706,10.706,0,0,1-1.4-.673,4.649,4.649,0,0,0-.866-.38,1.769,1.769,0,0,0-2.3,1.963c.007.037.015.074.023.111a1.259,1.259,0,0,0,.765.858,15.541,15.541,0,0,0,3.514.939A1.287,1.287,0,0,0,43.552,217.059Z" transform="translate(-35.472 -204.729)" fill="#fff"/>
  <path id="Path_204" data-name="Path 204" d="M45.473,327.857H43.73a.294.294,0,0,0-.294.294v1.743a.3.3,0,0,0,.5.208l1.743-1.743A.3.3,0,0,0,45.473,327.857Z" transform="translate(-40.604 -310.166)" fill="#ffe21f"/>
  <path id="Path_205" data-name="Path 205" d="M48.463,330.893c-1.814-3.14-3.9-3.041-3.9-3.041H29.157s-2.086-.1-3.9,3.041H22.119l.038.4a.736.736,0,0,0,.733.669H50.829a.736.736,0,0,0,.733-.668l.038-.4Z" transform="translate(-20.677 -310.162)" fill="#777"/>
  <path id="Path_206" data-name="Path 206" d="M16.231,331.538a.736.736,0,0,1-.731-.652c-.11-.964-.38-2.651-.518-3.494v6.092a1.248,1.248,0,0,0,1.248,1.248h2.106a1.248,1.248,0,0,0,1.248-1.248v-1.946Z" transform="translate(-14.005 -309.732)" fill="#454545"/>
  <path id="Path_207" data-name="Path 207" d="M2.831,148.992v-.6a.976.976,0,0,0-.975-.976H1.015a1,1,0,0,0-.991.761.975.975,0,0,0,.546,1.1,3.536,3.536,0,0,0,1.472.321h.981l.256-.608H2.831Z" transform="translate(0 -141.488)" fill="#ed6262"/>
  <circle id="Ellipse_55" data-name="Ellipse 55" cx="1.227" cy="1.227" r="1.227" transform="translate(3.02 10.766)" fill="#ffbd49"/>
  <circle id="Ellipse_56" data-name="Ellipse 56" cx="0.901" cy="0.901" r="0.901" transform="translate(5.815 12.06)" fill="#ffdb6f"/>
  <g id="Group_684" data-name="Group 684" transform="translate(9.291 18.549)">
    <path id="Path_208" data-name="Path 208" d="M155.931,341.029H142.885a.369.369,0,1,0,0,.738H155.93a.369.369,0,0,0,0-.738Z" transform="translate(-142.516 -341.029)" fill="#6f6f6f"/>
    <path id="Path_209" data-name="Path 209" d="M155.931,363.635H142.885a.369.369,0,0,0,0,.738H155.93a.369.369,0,0,0,0-.738Z" transform="translate(-142.516 -362.161)" fill="#6f6f6f"/>
  </g>
  <path id="Path_210" data-name="Path 210" d="M79.03,86.585v.126a.893.893,0,0,1-.937.9.934.934,0,0,1-.845-.947V84.846a.749.749,0,0,0-.784-.742h-.03a.75.75,0,0,0-.784.742v1.642a.894.894,0,0,1-.947.885.925.925,0,0,1-.845-.937V85.008a.793.793,0,0,0-.794-.784H73a.747.747,0,0,0-.743.743v1.856a.9.9,0,0,1-.947.9.926.926,0,0,1-.834-.947V84.284a.71.71,0,0,0-.754-.7h-.061a.749.749,0,0,0-.752.743V86.87a.89.89,0,0,1-1.78.03V84.765a.935.935,0,0,0-.845-.947.894.894,0,0,0-.937.9l-.01,1.972a.893.893,0,0,1-.937.9.927.927,0,0,1-.84-.909V84.357a.927.927,0,0,0-.842-.939.9.9,0,0,0-.94.893v2.424a.9.9,0,0,1-.942.872.926.926,0,0,1-.834-.947V84.846a.757.757,0,0,0-.794-.742h-.02a.753.753,0,0,0-.794.742v1.642a.885.885,0,0,1-.937.885.905.905,0,0,1-.829-.816c-.47.974-.937,2.029-1.39,3.156a160.123,160.123,0,0,0,25.151,0Q79.72,88.017,79.03,86.585Z" transform="translate(-51.644 -81.662)" fill="#3aa2eb"/>
</svg>
