<svg xmlns="http://www.w3.org/2000/svg" width="32.503" height="31" viewBox="0 0 32.503 31">
  <g id="Group_721" data-name="Group 721" transform="translate(-4259 -3618.205)">
    <path id="Path_377" data-name="Path 377" d="M228.613,7.293h-11.6a.2.2,0,0,0-.2.2V10.8h12V7.493A.2.2,0,0,0,228.613,7.293Z" transform="translate(4057.607 3610.912)" fill="#ed5729"/>
    <path id="Path_378" data-name="Path 378" d="M208.287,65.862H193.368v-27.5a.31.31,0,0,1,.31-.31h14.3a.31.31,0,0,1,.31.31v27.5Z" transform="translate(4079.595 3582.071)" fill="#ff6d3a"/>
    <path id="SVGCleanerId_0" d="M48.947,268.565l6.509-4.329a.186.186,0,0,1,.207,0l6.509,4.329a.7.7,0,0,0,1.006-.253h0a.7.7,0,0,0-.23-.915l-7.285-4.846a.187.187,0,0,0-.207,0L48.17,267.4a.7.7,0,0,0-.23.915h0A.7.7,0,0,0,48.947,268.565Z" transform="translate(4216.037 3371.591)" fill="#ff901d"/>
    <g id="Group_704" data-name="Group 704" transform="translate(4263.894 3634.111)">
      <path id="SVGCleanerId_0_1_" d="M48.947,268.565l6.509-4.329a.186.186,0,0,1,.207,0l6.509,4.329a.7.7,0,0,0,1.006-.253h0a.7.7,0,0,0-.23-.915l-7.285-4.846a.187.187,0,0,0-.207,0L48.17,267.4a.7.7,0,0,0-.23.915h0A.7.7,0,0,0,48.947,268.565Z" transform="translate(-47.857 -262.52)" fill="#ff901d"/>
    </g>
    <path id="Path_379" data-name="Path 379" d="M385.685,38.051h-2.8a.31.31,0,0,1,.31.31v27.5h2.8v-27.5A.309.309,0,0,0,385.685,38.051Z" transform="translate(3901.887 3582.071)" fill="#ed5729"/>
    <g id="Group_705" data-name="Group 705" transform="translate(4274.949 3622.814)">
      <path id="Path_380" data-name="Path 380" d="M227.532,84.5h-2.2a.091.091,0,0,1-.091-.091v-3.05a.091.091,0,0,1,.091-.091h2.2a.091.091,0,0,1,.091.091V84.4A.091.091,0,0,1,227.532,84.5Z" transform="translate(-225.243 -81.263)" fill="#fff"/>
      <path id="Path_381" data-name="Path 381" d="M296.252,84.5h-2.2a.091.091,0,0,1-.091-.091v-3.05a.091.091,0,0,1,.091-.091h2.2a.091.091,0,0,1,.091.091V84.4A.091.091,0,0,1,296.252,84.5Z" transform="translate(-289.68 -81.263)" fill="#fff"/>
      <path id="Path_382" data-name="Path 382" d="M364.971,84.5h-2.2a.091.091,0,0,1-.091-.091v-3.05a.091.091,0,0,1,.091-.091h2.2a.091.091,0,0,1,.091.091V84.4A.091.091,0,0,1,364.971,84.5Z" transform="translate(-354.116 -81.263)" fill="#fff"/>
      <path id="Path_383" data-name="Path 383" d="M227.532,185.732h-2.2a.091.091,0,0,1-.091-.091v-3.05a.091.091,0,0,1,.091-.091h2.2a.091.091,0,0,1,.091.091v3.05A.091.091,0,0,1,227.532,185.732Z" transform="translate(-225.243 -176.19)" fill="#fff"/>
      <path id="Path_384" data-name="Path 384" d="M296.252,185.732h-2.2a.091.091,0,0,1-.091-.091v-3.05a.091.091,0,0,1,.091-.091h2.2a.091.091,0,0,1,.091.091v3.05A.091.091,0,0,1,296.252,185.732Z" transform="translate(-289.68 -176.19)" fill="#fff"/>
      <path id="Path_385" data-name="Path 385" d="M364.971,185.732h-2.2a.091.091,0,0,1-.091-.091v-3.05a.091.091,0,0,1,.091-.091h2.2a.091.091,0,0,1,.091.091v3.05A.091.091,0,0,1,364.971,185.732Z" transform="translate(-354.116 -176.19)" fill="#fff"/>
      <path id="Path_386" data-name="Path 386" d="M227.532,286.967h-2.2a.091.091,0,0,1-.091-.091v-3.05a.091.091,0,0,1,.091-.091h2.2a.091.091,0,0,1,.091.091v3.05A.091.091,0,0,1,227.532,286.967Z" transform="translate(-225.243 -271.115)" fill="#fff"/>
      <path id="Path_387" data-name="Path 387" d="M296.252,286.967h-2.2a.091.091,0,0,1-.091-.091v-3.05a.091.091,0,0,1,.091-.091h2.2a.091.091,0,0,1,.091.091v3.05A.091.091,0,0,1,296.252,286.967Z" transform="translate(-289.68 -271.115)" fill="#fff"/>
      <path id="Path_388" data-name="Path 388" d="M364.971,286.967h-2.2a.091.091,0,0,1-.091-.091v-3.05a.091.091,0,0,1,.091-.091h2.2a.091.091,0,0,1,.091.091v3.05A.091.091,0,0,1,364.971,286.967Z" transform="translate(-354.116 -271.115)" fill="#fff"/>
      <rect id="Rectangle_159" data-name="Rectangle 159" width="2.38" height="3.233" transform="translate(4.283 18.928)" fill="#fff"/>
      <path id="Path_389" data-name="Path 389" d="M364.971,388.2h-2.2a.091.091,0,0,1-.091-.091v-3.05a.091.091,0,0,1,.091-.091h2.2a.091.091,0,0,1,.091.091v3.05A.091.091,0,0,1,364.971,388.2Z" transform="translate(-354.116 -366.041)" fill="#fff"/>
    </g>
    <rect id="Rectangle_160" data-name="Rectangle 160" width="1.948" height="2.906" transform="translate(4266.594 3635.094)" fill="#ffb125"/>
    <path id="Path_390" data-name="Path 390" d="M87.423,263.8H85.253a.275.275,0,0,1-.275-.275V262.8a.275.275,0,0,1,.275-.275h2.169a.275.275,0,0,1,.275.275v.724A.275.275,0,0,1,87.423,263.8Z" transform="translate(4181.229 3371.59)" fill="#ffb123"/>
    <path id="Path_391" data-name="Path 391" d="M90.895,282.069l-5.732-3.813-5.732,3.813v9.039H90.9v-9.039Z" transform="translate(4186.432 3356.836)" fill="#61aff6"/>
    <path id="Path_392" data-name="Path 392" d="M181.614,402.264h-3.825V400.1a.131.131,0,0,1,.131-.131h3.563a.131.131,0,0,1,.131.131v2.167Z" transform="translate(4094.203 3242.711)" fill="#e1effb"/>
    <path id="Path_393" data-name="Path 393" d="M156.016,282.069l-5.732-3.813-1.4.934,4.328,2.879h0v9.039h2.808v-9.039Z" transform="translate(4121.31 3356.836)" fill="#55a2f0"/>
    <path id="Path_394" data-name="Path 394" d="M48.947,268.565l6.509-4.329a.186.186,0,0,1,.207,0l6.509,4.329a.7.7,0,0,0,1.006-.253h0a.7.7,0,0,0-.23-.915l-7.285-4.846a.187.187,0,0,0-.207,0L48.17,267.4a.7.7,0,0,0-.23.915h0A.7.7,0,0,0,48.947,268.565Z" transform="translate(4216.037 3371.591)" fill="#ff901d"/>
    <path id="Path_395" data-name="Path 395" d="M104.578,389.491h-2.969a.2.2,0,0,0-.2.2v5.727h3.361v-5.727A.2.2,0,0,0,104.578,389.491Z" transform="translate(4165.819 3252.533)" fill="#ffb125"/>
    <path id="Path_396" data-name="Path 396" d="M210.255,399.966h-1.781v2.3h1.912V400.1A.131.131,0,0,0,210.255,399.966Z" transform="translate(4065.43 3242.711)" fill="#ccdfed"/>
    <path id="Path_397" data-name="Path 397" d="M369.513,440.511a1.823,1.823,0,0,1,1.63-1.78,2.377,2.377,0,0,1,4.336,1.78Z" transform="translate(3914.427 3207.412)" fill="#b6fa4d"/>
    <path id="Path_398" data-name="Path 398" d="M129.859,389.491h-1.484v5.923h1.68v-5.727A.2.2,0,0,0,129.859,389.491Z" transform="translate(4140.537 3252.533)" fill="#ff901d"/>
    <path id="Path_399" data-name="Path 399" d="M52.738,478.291H22.063a.872.872,0,0,0-.914.823h0a.872.872,0,0,0,.914.823H52.738a.872.872,0,0,0,.914-.823h0A.872.872,0,0,0,52.738,478.291Z" transform="translate(4237.851 3169.267)" fill="#7d0"/>
    <path id="Path_400" data-name="Path 400" d="M53.642,479.226h0a.749.749,0,0,0,.01-.114.728.728,0,0,0-.012-.123v0c0-.006,0-.012,0-.018a.731.731,0,0,0-.019-.076c-.005-.018-.011-.036-.018-.054l-.012-.028c-.008-.018-.016-.035-.025-.052l-.005-.012h0a.925.925,0,0,0-.819-.46h-2.2v.136a.824.824,0,0,1-.864.783H22.063a.927.927,0,0,1-.819-.46.747.747,0,0,0-.088.463.905.905,0,0,0,.932.724h30.65c.03,0,.06,0,.09,0l.03,0,.057-.008.036-.008L53,479.9l.038-.011.042-.014.039-.015.037-.016.04-.02.031-.017.041-.025.025-.017.043-.031.017-.014c.015-.012.03-.025.045-.039l.007-.007a.788.788,0,0,0,.239-.449Z" transform="translate(4237.851 3169.269)" fill="#6ec102"/>
    <g id="Group_720" data-name="Group 720" transform="translate(4259 3642.094)">
      <path id="Path_563" data-name="Path 563" d="M.4,0H.8a.424.424,0,0,1,.4.443V2.656A.424.424,0,0,1,.8,3.1H.4A.424.424,0,0,1,0,2.656V.443A.424.424,0,0,1,.4,0Z" transform="translate(2.41 3.029)" fill="#965353"/>
      <rect id="Rectangle_168" data-name="Rectangle 168" width="5.951" height="4.251" rx="1" transform="translate(0 0)" fill="#ffb125"/>
    </g>
  </g>
</svg>
