<svg xmlns="http://www.w3.org/2000/svg" width="13" height="13" viewBox="0 0 13 13">
  <g id="Group_649" data-name="Group 649" transform="translate(-204 -983)">
    <g id="Group_648" data-name="Group 648">
      <path id="iconmonstr-info-8" d="M6.5,0A6.5,6.5,0,1,0,13,6.5,6.5,6.5,0,0,0,6.5,0Z" transform="translate(204 983)" fill="#1877f2"/>
      <path id="iconmonstr-info-8-2" data-name="iconmonstr-info-8" d="M5.4,8.672c.306-.969.884-2.13.986-2.423.148-.426-.114-.615-.942.113l-.184-.347c.945-1.028,2.89-1.26,2.228.332-.413.994-.878,2.183-.878,2.183s.376.448.985-.114c.083.135.11.179.193.335-1.353,1.288-2.855,1.4-2.388-.079ZM7.967,4.247a.7.7,0,0,1-.954-.012.617.617,0,0,1,.089-.9.7.7,0,0,1,.954.012A.618.618,0,0,1,7.967,4.247Z" transform="translate(203.741 982.845)" fill="#fff"/>
    </g>
  </g>
</svg>
