<svg id="Group_209" data-name="Group 209" xmlns="http://www.w3.org/2000/svg" width="16.516" height="21.836" viewBox="0 0 16.516 21.836">
  <path id="Path_54" data-name="Path 54" d="M147.669,78.886a1.759,1.759,0,0,1-1.123-.4h0c-5.189-4.127-5.407-4.127-5.546-4.014l-5.05,4.014a1.789,1.789,0,0,1-1.907.218,1.862,1.862,0,0,1-1.053-1.7V62.117a4.985,4.985,0,0,1,4.884-5.067h6.748a4.985,4.985,0,0,1,4.884,5.067V77a1.862,1.862,0,0,1-1.053,1.7A1.655,1.655,0,0,1,147.669,78.886Zm.009-1.854C147.678,77.023,136.12,76.014,147.678,77.032Z" transform="translate(-132.99 -57.05)" fill="#1877f2"/>
</svg>
