<svg id="Group_209" data-name="Group 209" xmlns="http://www.w3.org/2000/svg" width="16.516" height="21.836" viewBox="0 0 16.516 21.836">
  <path id="Path_54" data-name="Path 54" d="M147.669,78.886a1.759,1.759,0,0,1-1.123-.4h0l-5.05-4.014a.405.405,0,0,0-.5,0l-5.05,4.014a1.789,1.789,0,0,1-1.907.218,1.862,1.862,0,0,1-1.053-1.7V62.117a4.985,4.985,0,0,1,4.884-5.067h6.748a4.985,4.985,0,0,1,4.884,5.067V77a1.862,1.862,0,0,1-1.053,1.7A1.655,1.655,0,0,1,147.669,78.886Zm-6.417-6.33a2.234,2.234,0,0,1,1.393.479l5.032,4c0-.009.009-.017.009-.035V62.117a3.152,3.152,0,0,0-3.047-3.239h-6.748a3.152,3.152,0,0,0-3.047,3.239V77c0,.017,0,.026.009.035l5.032-4A2.161,2.161,0,0,1,141.253,72.556Z" transform="translate(-132.99 -57.05)" fill="#6d6e70"/>
</svg>
