<svg xmlns="http://www.w3.org/2000/svg" width="28.775" height="30.387" viewBox="0 0 28.775 30.387">
  <g id="Group_695" data-name="Group 695" transform="translate(0)">
    <g id="Group_693" data-name="Group 693" transform="translate(0.829)">
      <path id="Path_220" data-name="Path 220" d="M163.85,178.88l-3.48-.061,1.024-2.395h0l.714-.714h0L165,172.818l5.39-5.39.022-.021.685.685,1.77,1.77-.683.683h0l-2.026,2.025-.314.314-2.389,2.389-1.645,1.645-1.959,1.96Z" transform="translate(-152.487 -157.472)" fill="#92949b"/>
      <path id="Path_221" data-name="Path 221" d="M28.16,326.3a2.324,2.324,0,0,1,.069-3.237l.895-.894,1.186-1.186,5.465-5.464a.39.39,0,0,1,.552,0l.119.119.894.894,1.562,1.562.119.119a.389.389,0,0,1,0,.552l-7.575,7.576A2.3,2.3,0,0,1,28.16,326.3Z" transform="translate(-27.538 -296.683)" fill="#e8b33f"/>
      <path id="Path_222" data-name="Path 222" d="M177.631,176.424h0l.714-.714h0l2.891-2.891,5.39-5.39.022-.021.685.685-.683.683h0l-2.026,2.025-.314.314-2.389,2.389-1.645,1.645-1.959,1.96h0Z" transform="translate(-168.723 -157.472)" fill="#66686d"/>
      <path id="Path_223" data-name="Path 223" d="M404.542,163.968a6.039,6.039,0,0,1,.991,7.329,14.494,14.494,0,0,0-4.914-5.709l-.078-2.613,2.851-.157h0Z" transform="translate(-378.404 -153.155)" fill="#484b54"/>
      <path id="Path_224" data-name="Path 224" d="M28.16,326.3a2.324,2.324,0,0,1,.069-3.237l.895-.894,1.186-1.186,5.465-5.464a.39.39,0,0,1,.552,0l.119.119h0l.893.894A36.452,36.452,0,0,0,28.16,326.3Z" transform="translate(-27.538 -296.683)" fill="#d39f37"/>
      <path id="Path_225" data-name="Path 225" d="M280.824,37.539l-1.246,3.454-3.3,1.09h0a1.586,1.586,0,0,0,.139-1.616,2.123,2.123,0,0,0-.93-.936,1.6,1.6,0,0,0-1.627.134h0l.716-3.362,3.828-1.182h0a1.62,1.62,0,0,0-.094,1.711,2.128,2.128,0,0,0,.895.85,1.584,1.584,0,0,0,1.618-.143Z" transform="translate(-259.243 -33.037)" fill="#484b54"/>
      <path id="Path_226" data-name="Path 226" d="M240.826,6.629l-2.084-2.084L243.286,0l2.084,2.084S240.912,6.545,240.826,6.629Z" transform="translate(-226.207)" fill="#92949b"/>
      <g id="Group_688" data-name="Group 688" transform="translate(12.513 3.655)">
        <path id="Path_227" data-name="Path 227" d="M241.661,63.716l-.784.784s-.033.036-.051.051l-2.084-2.084.89-.89,2.084,2.084C241.7,63.68,241.661,63.716,241.661,63.716Z" transform="translate(-238.72 -61.577)" fill="#66686d"/>
        <path id="Path_228" data-name="Path 228" d="M320.516,170.545l-2.455-2.455h0l.662-.662.022-.021,2.456,2.455Z" transform="translate(-313.331 -161.126)" fill="#66686d"/>
        <path id="Path_229" data-name="Path 229" d="M240.838,241.83l-2.455-2.456,1.212-1.212,2.456,2.455Z" transform="translate(-238.383 -227.682)" fill="#66686d"/>
      </g>
      <path id="Path_230" data-name="Path 230" d="M323.436,80.15l-.878.876-1.9,1.893-.877.877-.9.9-.939-.939h0L315.5,81.3h0l-.888-.888c.081-.084,4.461-4.463,4.544-4.544Z" transform="translate(-297.57 -71.363)" fill="#92949b"/>
    </g>
    <g id="Group_692" data-name="Group 692" transform="translate(0 3.17)">
      <path id="Path_231" data-name="Path 231" d="M270.252,307.508l1.287,1.287-2.577,2.577-1.287-1.287.542-.542,1.493-1.493Z" transform="translate(-252.594 -292.427)" fill="#484b54"/>
      <path id="Path_232" data-name="Path 232" d="M294.129,331.6a2.365,2.365,0,0,1-4.038,1.672l-4.678-4.677a1.113,1.113,0,1,0-1.574-1.574l-.944-.944.384-.384,1.116-1.115,1.462-1.462.384-.384.944.944a1.113,1.113,0,0,0,1.574,1.574l4.677,4.678A2.359,2.359,0,0,1,294.129,331.6Z" transform="translate(-266.912 -306.743)" fill="#ea3d3d"/>
      <path id="Path_233" data-name="Path 233" d="M15.167,53.407l3.178,1.585.278,1.972L30.69,69.03,29.2,70.523,17.13,58.456l-1.972-.278L13.574,55Z" transform="translate(-13.574 -53.407)" fill="#b5b6ba"/>
      <path id="Path_234" data-name="Path 234" d="M293.436,362.53a2.365,2.365,0,0,1-3.345,0l-4.678-4.677a1.113,1.113,0,1,0-1.574-1.574l-.944-.944.384-.384,1.116-1.115C284.47,353.93,289.846,360.784,293.436,362.53Z" transform="translate(-266.912 -336.006)" fill="#d33333"/>
    </g>
  </g>
</svg>
